<?xml version="1.0" encoding="utf-8"?>
<!-- Generator: Adobe Illustrator 27.3.1, SVG Export Plug-In . SVG Version: 6.00 Build 0)  -->
<svg version="1.1" xmlns="http://www.w3.org/2000/svg" xmlns:xlink="http://www.w3.org/1999/xlink" x="0px" y="0px"
	 viewBox="0 0 1080 1080" style="enable-background:new 0 0 1080 1080;" xml:space="preserve">
<style type="text/css">
	.st0{fill:#E4AB6A;stroke:#231F20;stroke-width:15;stroke-linecap:round;stroke-linejoin:round;stroke-miterlimit:10;}
	.st1{fill:#FFB77B;}
	.st2{fill:#FFC47F;}
	.st3{fill:#E4906A;}
	.st4{fill:none;stroke:#231F20;stroke-width:20;stroke-miterlimit:10;}
	.st5{fill:#F7973E;}
	.st6{fill:#F76B34;}
	.st7{fill:none;stroke:#231F20;stroke-width:20;stroke-linecap:round;stroke-linejoin:round;stroke-miterlimit:10;}
	.st8{fill:#FFFFFF;stroke:#231F20;stroke-width:5;stroke-miterlimit:10;}
	.st9{fill:#FFBF7B;stroke:#231F20;stroke-width:3;stroke-miterlimit:10;}
	.st10{fill:#231F20;}
	.st11{display:none;}
</style>
<g id="Bird">
	<path class="st0" d="M244.93,522.63c0,0-45.79-48.18-68.58-19.99c-6.71,8.3,5.3,21.88,13.39,29.5c1.74,1.64,0.39,4.54-1.98,4.26
		c-12.01-1.39-29.16,0.85-21.17,17.64c7.77,16.33,13.94,22.97,16.72,26.12c0.62,0.7-0.02,1.78-0.93,1.58
		c-10.47-2.3-34.88-7.13-28.54,13.4c8.38,27.11,57.96,32.04,76.89,6.6"/>
	<path class="st1" d="M843.45,577.52c0,148.26-135.86,236.49-303.45,236.49s-319.29-72.39-319.29-220.65
		c0-106,160.76-284.28,366.37-284.28C754.67,309.08,843.45,429.26,843.45,577.52z"/>
	<path class="st2" d="M813.77,440.85c0,0-21.26-48.69-83.9-76.8c-27.71-12.44-60.05-13.15-101.08-13.15
		c-40.67,0-75.01-20.83-136.72-7.71c-92.81,19.72-134.3,51.94-177.24,72.78c0,0,112.86-113.28,274.64-113.28
		S813.77,440.85,813.77,440.85z"/>
	<path class="st3" d="M818.8,672.09c0,0-71.16,67.75-134.83,67.75s-76.5-11.42-121.55-11.42c-45.05,0-63.03,23.51-103.04,29.01
		c-41.23,5.67-74.79-28.29-120.55-38.02c-32.64-6.93-57.79,5.79-57.79,5.79l71.81,46.36l111.77,30.91l85.3,5.11l102.21-14.41
		l81.84-34.46l43.21-32.67L818.8,672.09z"/>
	<path class="st4" d="M843.45,571.1c0,148.26-135.86,236.49-303.45,236.49s-319.29-72.39-319.29-220.65
		c0-106,160.76-284.28,366.37-284.28C754.67,302.66,843.45,422.84,843.45,571.1z"/>
	<path class="st5" d="M674.94,609.11c0,0,227.02,1.76,227.02,44.15c0,44.36-221.41,44.71-221.41,44.71"/>
	<path class="st6" d="M689.22,662.99l-8.66,34.98l107.9-5.44l76.92-12.97l25.34-10.48l13.72-24.85
		C904.43,644.22,743.71,684.17,689.22,662.99z"/>
	<path class="st7" d="M674.94,609.11c0,0,227.02,1.76,227.02,44.15c0,44.36-221.41,44.71-221.41,44.71"/>
	<path class="st7" d="M662.21,589.74c0,0,60.84,71.69,0,132.53"/>
	<g>
		<ellipse class="st8" cx="650.2" cy="517.96" rx="52.52" ry="49.91"/>
		<ellipse cx="666.74" cy="522.07" rx="23.26" ry="22.1"/>
		<path class="st9" d="M700.2,502.51c2.2,8.3-101.84,9.4-101.84,7.45c0-17.76,22.84-41.91,51.84-41.91
			C679.2,468.05,697.21,491.21,700.2,502.51z"/>
	</g>
	<g>
		<ellipse class="st8" cx="767.73" cy="528.61" rx="46.03" ry="49.91"/>
		<ellipse cx="761.85" cy="533.99" rx="20.38" ry="22.1"/>
	</g>
	<g>
		<ellipse cx="761.85" cy="533.99" rx="20.38" ry="22.1"/>
		<path class="st9" d="M810.6,513.14c1.06,2.71-87.95,3.14-86.77,0.44c7.74-17.75,20.6-34.87,43.41-34.87S803.54,495.1,810.6,513.14
			z"/>
	</g>
	<g>
		<path class="st10" d="M478.69,545.44c-26.37-11.97-87.77-35.66-105.19-1.54c-1.39,2.84-2.93,5.75-1.8,8.96
			c4.01,10.89,20.62,19.64,30.83,24.9c5.01,2.28,7.54,8.52,5.53,13.63c-1.15,3.46-4.65,6.36-8.2,6.95c0,0-1.91,0.38-1.91,0.38
			c-1.71,0.39-3.61,0.81-5.28,1.3c-6.17,1.91-14.69,4.73-17.62,10.65c-1.5,4.22,2.24,8.59,5.05,11.92
			c8.09,8.98,16.85,17.79,26.35,24.83c2.48,1.87,5.13,3.65,7.77,5.33c2.22,1.25,4.04,3.35,4.58,5.96
			c1.26,5.17-2.79,10.54-8.12,10.74c0,0-0.24,0.01-0.24,0.01s-0.97,0.06-0.97,0.06c-8.38,0.59-32.76,2.14-34.6,11.54
			c-0.42,3.33,1.68,7.49,3.65,10.63c4.9,7.92,12.98,13.33,21.85,16.33c19.03,6.24,40.61,3.39,58.67-5.09
			c14.11-6.62,26.36-17.53,33.03-31.83c-5.76,19.83-22.63,34.78-41.27,42.64c-21.95,9.18-48.94,10.83-69.71-2.44
			c-11.97-7.84-25.65-25.66-16.38-40.21c8.85-12.8,29.8-14.8,43.73-16.07c0,0,1.01-0.08,1.01-0.08s0.25-0.02,0.25-0.02
			c-1.6-0.06-4.17,1.62-4.8,3.41c-1.25,2.4,0,6.03,2.14,7.21c-0.35-0.23-1.97-1.2-2.36-1.46c-13.02-8.13-24.29-18.85-34.38-30
			c-13.09-13.39-15.48-30.04,1.88-41.04c7.74-4.76,16.25-7.18,25.05-8.65c-2.85,0.56-3.49,4.57-0.82,5.88
			c-6.89-3.65-13.42-7.59-19.68-12.45c-9.53-7.27-21.01-19.67-16.31-33.1c1.09-2.94,2.57-5.69,4.29-8.3
			c8.32-13.18,23.65-19.05,38.6-18.63C430.14,518.58,456.56,531.22,478.69,545.44L478.69,545.44z"/>
	</g>
	<g>
		<path class="st10" d="M481.83,662.18c5.69-1.18,11.68-0.6,16.88,2.55c2.76,1.61,6.05,3.77,6.73,7.21
			c0.79,3.46,0.06,6.98-2.63,9.54c-0.27,0.26-0.69,0.26-0.97,0.03c-2.31-2.05-3.81-3.7-5.58-5.6c-1.4-1.4-1.31-3.46-2.6-4.97
			c-2.9-3.51-7.41-6.08-11.87-7.76C481.3,663.05,481.32,662.28,481.83,662.18L481.83,662.18z"/>
	</g>
	<g>
		<path class="st10" d="M689.75,470.31c-10.79-8.48-24.08-14.34-37.88-14.23c-4.14,0.07-8.19,1.05-12.08,2.27
			c-4.7,1.56-9.34,3.36-13.76,5.6c-3.92,1.98-7.65,4.27-11.54,6.37c-0.3,0.16-0.66-0.21-0.47-0.51c1.32-2.3,3.1-4.69,4.9-6.66
			c5.67-6.25,13.33-10.99,21.76-12.28c11.14-1.66,22.64,0.53,32.48,5.85c6.35,3.46,12.21,7.76,17.09,13.09
			c0.13,0.14,0.12,0.36-0.02,0.49C690.08,470.43,689.88,470.43,689.75,470.31L689.75,470.31z"/>
	</g>
	<g>
		<path class="st10" d="M805.35,485.1c-9.47-5.02-18.3-9.01-28.16-12.18c-12.83-4.57-27.37-1.5-38.65,5.89
			c-1.33,0.76-3.04,2.13-4.3,2.99c-1.4,1.06-2.75,2.2-4.14,3.31c-0.3,0.26-0.77-0.2-0.49-0.5c6.99-8.11,16.28-15.02,26.9-17.83
			c10.81-2.63,22.99-2.07,32.97,3.15c6.53,3.53,12.43,8.33,16.36,14.68C806.03,484.91,805.67,485.3,805.35,485.1L805.35,485.1z"/>
	</g>
</g>
<g id="Ref" class="st11">
</g>
</svg>
